<svg width="1858" height="431" viewBox="0 0 1858 431" fill="none" xmlns="http://www.w3.org/2000/svg">
<path d="M0 281.845H12.63C14.56 276.695 16.51 271.505 18.52 266.135H28.25V150.555H35.06V144.465C38.5 144.445 41.72 144.425 44.94 144.415C48.09 144.415 51.25 144.415 54.67 144.415V133.005H75.09C75.45 135.825 75.05 138.745 75.34 141.935C77.72 142.125 80.09 142.005 82.46 142.025C84.85 142.045 87.24 142.025 89.86 142.025V262.755C91.7 263.335 115.51 263.535 120.23 263.045C120.39 260.675 120.28 258.225 120.3 255.785C120.32 253.385 120.3 250.985 120.3 248.585V226.535C120.3 224.065 120.3 221.595 120.3 218.845C122.9 218.545 125.43 218.735 127.94 218.695C130.42 218.665 132.89 218.695 135.37 218.695H150.73V211.545C152.32 211.425 153.59 211.325 155.04 211.225V205.895C156.79 205.285 177.71 205.095 181.55 205.635V211.215C183.24 211.325 184.66 211.425 186.36 211.535V235.655C193.18 235.925 199.73 235.735 206.27 235.775C212.76 235.805 219.26 235.775 226.03 235.775V244.935H246.57V268.375C247.32 268.135 247.83 268.035 248.27 267.815C250.76 266.575 253.2 265.225 255.73 264.065C257.08 263.445 257.5 262.585 257.41 261.175C257.31 259.475 257.37 257.775 257.39 256.065C257.39 255.465 257.49 254.865 257.56 254.155H282.33C282.69 255.665 283.05 257.155 283.45 258.795H289.17C289.21 257.845 289.27 256.945 289.27 256.045C289.27 243.975 289.25 231.905 289.29 219.825C289.3 216.095 288.68 217.185 291.95 214.845C293.02 214.075 294.07 213.275 295.2 212.605C296.26 211.975 296.6 211.135 296.57 209.925C296.49 206.835 296.55 203.735 296.55 200.635C296.55 199.875 296.55 199.115 296.55 198.055C302.36 198.025 307.95 197.985 313.77 197.955V173.455H330.9C331.25 179.075 330.86 184.765 331.13 190.655H347.53V198.005C349.05 198.005 350.27 198.065 351.48 197.985C352.64 197.915 353.32 198.345 353.83 199.405C354.68 201.205 355.67 202.935 356.86 205.175C358.77 199.865 360.5 195.045 362.28 190.055H387.05C387.13 189.265 387.24 188.665 387.24 188.075C387.26 184.595 387.19 181.105 387.28 177.625C387.31 176.585 387.68 175.545 387.99 174.525C388.16 173.935 388.44 173.365 388.79 172.855C391.53 168.865 392.2 164.355 392.34 159.655C392.43 156.795 392.71 153.945 392.92 151.085C392.95 150.635 393.04 150.195 393.43 149.685C393.52 150.145 393.65 150.595 393.69 151.055C394.05 155.915 394.36 160.775 394.77 165.635C394.85 166.605 395.16 167.615 395.61 168.475C398.097 173.155 399.347 178.128 399.36 183.395C399.36 185.395 399.36 187.385 399.36 189.445C401.56 189.445 403.55 189.445 405.53 189.445C407.51 189.445 409.54 189.445 411.7 189.445C413.65 195.655 415.56 201.755 417.62 208.305C419.49 205.955 421.19 203.965 422.69 201.845C423.11 201.245 423.03 200.215 423.03 199.385C423.05 186.535 423.04 173.695 423.04 160.845C423.04 159.935 423.04 159.015 423.04 157.775C424.05 157.775 424.87 157.775 425.69 157.775C435.05 157.775 444.42 157.745 453.78 157.805C455.33 157.815 456.41 157.415 457.28 156.115C458.05 154.955 459.06 153.965 459.86 152.825C460.65 151.695 461.61 151.315 462.98 151.325C471.34 151.385 479.7 151.355 488.06 151.355C489.75 151.355 491.44 151.355 493.37 151.355C493.96 145.985 494.52 140.785 495.09 135.585C495.21 135.565 495.33 135.555 495.44 135.535C497.32 146.945 499.19 158.355 501.1 169.955C502.77 170.035 504.36 170.115 506.21 170.205C506.59 176.815 506.97 183.345 507.36 190.095H514.36C514.69 190.395 514.76 190.445 514.81 190.505C514.86 190.555 514.93 190.615 514.95 190.685C514.99 190.835 515.02 190.985 515.03 191.145C515.05 191.295 515.05 191.455 515.05 191.605C515.07 208.785 515.1 225.965 515.12 243.135C515.12 243.205 515.18 243.275 515.35 243.695C517.93 244.365 520.73 245.085 523.72 245.865V203.125C522.98 202.995 522.32 202.885 521.37 202.715C522.07 196.325 522.77 189.985 523.5 183.435H535.18C535.23 182.405 535.31 181.595 535.31 180.785C535.32 174.675 535.27 168.555 535.35 162.445C535.37 161.085 535.78 159.725 536.02 158.375C536.03 158.305 536.08 158.235 536.1 158.155C537.58 154.325 538.44 150.505 538.43 146.245C538.41 138.325 540.13 130.585 543.11 123.185C546.08 115.785 550.29 109.165 555.54 103.185C558.86 99.4048 562.6 96.2648 567.56 94.5448V84.7548C568.91 84.0948 570.15 83.4848 571.63 82.7548C571.63 82.0048 571.63 81.1748 571.63 80.3448C571.63 71.0548 571.66 61.7748 571.6 52.4848C571.6 51.0048 571.86 49.7248 572.89 48.6748C574.99 46.5448 575.64 44.0248 575.4 41.0648C575.19 38.5248 575.4 35.9548 575.33 33.4048C575.29 32.1648 575.53 31.1148 576.51 30.3048C578.66 28.5348 579.28 26.3048 579.09 23.5448C578.85 20.1548 578.96 16.7348 579.06 13.3348C579.13 10.8248 578.85 8.45484 577.75 6.13484C576.77 4.05484 578.87 0.31484 581.13 0.02484C582.88 -0.19516 583.95 1.08484 584.87 2.33484C585.66 3.41484 585.97 4.79484 584.94 5.74484C583.59 6.99484 583.69 8.44484 583.7 9.98484C583.7 15.0148 583.74 20.0448 583.68 25.0748C583.67 26.3848 583.85 27.5348 584.85 28.4348C587.03 30.4048 587.78 32.8548 587.39 35.7148C586.84 39.8048 587.86 43.5048 590.2 46.8748C591.57 48.8548 591.93 51.0448 591.9 53.4548C591.8 62.2748 591.9 71.0948 591.83 79.9148C591.82 81.4048 592.18 82.4848 593.52 83.1448C596.78 84.7448 598 87.3448 597.37 90.8648C597.34 91.0148 597.37 91.1748 597.37 91.3248C597.41 94.2648 596.99 94.0348 599.95 95.1348C604.61 96.8748 608.5 99.6548 611.98 103.195C620.14 111.495 624.69 121.545 626.82 132.825C627.55 136.695 628.05 140.615 628.84 144.475C629.63 148.325 630.7 152.125 631.57 155.965C631.89 157.385 632.16 158.845 632.17 160.295C632.24 166.565 632.2 172.835 632.2 179.095C632.2 179.935 632.2 180.775 632.2 181.865H643.95C645 188.575 646.01 195.095 647.05 201.765C645.92 201.905 645.03 202.025 643.84 202.175C643.7 206.995 643.8 211.805 644.02 216.675C644.83 215.815 645.23 214.855 645.23 213.685C645.21 205.865 648.61 199.705 654.47 194.755C655.05 194.265 655.74 193.885 656.41 193.505C657.08 193.125 657.78 192.825 658.53 192.455C658.56 191.735 658.62 191.045 658.61 190.365C658.6 189.475 658.65 188.695 659.7 188.325C660.65 187.995 660.46 187.085 660.46 186.335C660.47 183.235 660.49 180.145 660.46 177.045C660.46 176.075 660.56 175.185 661.32 174.515C662.17 173.765 662.21 172.795 662.21 171.765C662.21 169.955 661.77 168.005 663.64 166.705C663.79 166.595 663.89 166.285 663.88 166.075C663.75 163.555 664.44 160.955 663.39 158.515C662.94 157.475 663.45 156.895 664.14 156.345C664.88 155.745 665.58 155.985 666.22 156.555C666.73 157.015 666.86 157.485 666.55 158.185C665.42 160.765 666.17 163.495 666.07 166.155C667.85 167.795 667.72 169.975 667.84 172.115C667.87 172.595 668.3 173.095 668.63 173.505C669.57 174.655 669.77 175.975 669.74 177.415C669.68 180.275 669.76 183.145 669.71 186.005C669.69 187.105 669.92 187.985 671 188.465C672.05 188.935 672.45 189.755 672.32 190.895C672.27 191.345 672.37 191.805 672.39 192.045C674.55 193.275 676.69 194.225 678.51 195.595C683.01 198.975 685.2 203.755 686.27 209.175C686.73 211.515 687.54 213.795 687.93 216.155C688.25 218.115 688.32 220.155 688.25 222.145C688.18 224.105 688.61 225.585 690.1 227.065C692.91 229.845 693.95 233.535 694.19 237.415C694.42 241.195 694.51 244.975 694.65 248.735C696.32 249.275 705.26 249.375 708.02 248.835V235.205H762.79V244.355C764.62 244.985 804.94 245.165 808.41 244.595V235.855H837.71C837.73 239.075 837.75 242.295 837.76 245.505C837.76 248.755 837.76 252.005 837.76 255.255V264.775C837.76 268.005 837.76 271.225 837.76 274.645C841.3 274.485 844.53 274.335 847.75 274.175C852.93 273.935 858.1 273.615 863.29 273.485C865.39 273.435 867.25 272.915 868.96 271.765C869.8 271.205 870.65 270.675 871.44 270.055C874.55 267.615 878.1 266.495 882.01 266.525C884.33 266.545 886.64 266.675 888.96 266.735C889.88 266.755 890.8 266.735 892 266.735V259.945C893.89 259.385 902.61 259.265 905.8 259.705V266.685C915.04 271.725 924.18 276.715 933.58 281.845C933.68 281.015 933.8 280.445 933.8 279.885C933.82 275.245 933.84 270.595 933.79 265.955C933.78 264.805 934.07 263.885 934.82 263.005C936.13 261.485 937.4 259.915 938.59 258.295C939.31 257.315 940.16 256.975 941.35 257.005C944.37 257.075 947.39 257.035 950.4 257.025C951.15 257.025 951.9 256.945 952.89 256.895V248.565H1003.25C1003.33 250.265 1003.42 251.985 1003.52 253.965C1006.34 253.965 1009.04 254.155 1011.7 253.915C1014.23 253.685 1015.89 254.545 1017.3 256.615C1018.77 258.775 1020.55 260.735 1022.44 263.085C1024.21 260.585 1025.93 258.325 1027.39 255.905C1027.74 255.315 1027.6 254.395 1027.6 253.635C1027.61 243.495 1027.73 233.355 1027.56 223.225C1027.47 217.465 1028.04 211.815 1029.19 206.185C1029.79 203.235 1030.29 200.275 1030.93 196.755C1031.31 197.765 1031.55 198.255 1031.68 198.775C1032.85 203.505 1033.95 208.245 1035.18 212.955C1035.71 214.995 1035.95 217.025 1035.94 219.135C1035.9 229.345 1035.94 239.565 1035.9 249.775C1035.9 251.185 1036.2 252.275 1037.23 253.285C1038.94 254.965 1040.56 256.745 1042.14 258.545C1042.92 259.435 1043.76 259.825 1044.96 259.805C1048.2 259.735 1051.43 259.785 1054.81 259.785C1054.9 259.085 1055.03 258.575 1055.03 258.065C1055.03 235.395 1055.03 212.715 1055.07 190.045C1055.07 188.745 1054.6 187.805 1053.77 186.965C1052.72 185.905 1052.37 184.675 1052.41 183.185C1052.49 179.395 1052.44 175.605 1052.44 171.815C1052.44 171.065 1052.44 170.305 1052.44 169.475H1120.41V260.215H1134.42C1134.53 259.045 1134.64 257.855 1134.78 256.455H1140.9C1140.93 255.345 1140.98 254.465 1140.98 253.575C1140.98 231.135 1141.01 208.695 1140.94 186.255C1140.94 184.355 1141.32 182.795 1142.62 181.425C1143.36 180.645 1144.09 179.795 1144.6 178.855C1145.64 176.955 1147.19 176.435 1149.22 176.635C1150.51 176.765 1151.82 176.655 1153.36 176.655C1153.44 175.105 1153.51 173.755 1153.58 172.265H1177.57V179.345C1179.53 179.365 1181.21 179.375 1182.88 179.405C1184.65 179.445 1186.69 178.995 1188.12 179.725C1189.55 180.455 1190.29 182.445 1191.46 183.775C1192.48 184.925 1192.6 186.215 1192.6 187.645C1192.58 215.345 1192.59 243.055 1192.59 270.755V274.025H1195.34C1200.68 274.025 1206.02 274.155 1211.36 273.965C1213.52 273.885 1214.68 274.595 1215.34 276.545C1215.64 277.415 1216.22 278.185 1216.55 279.045C1217 280.225 1217.73 280.715 1219.02 280.625C1220.56 280.525 1222.12 280.695 1223.66 280.575C1225.13 280.455 1226.16 280.985 1227.08 282.075C1228.02 283.195 1229.13 284.175 1230.1 285.285C1230.82 286.115 1231.63 286.455 1232.73 286.415C1234.58 286.345 1236.44 286.395 1238.45 286.395C1239.47 288.455 1240.48 290.495 1241.59 292.745C1242.16 292.145 1242.53 291.785 1242.87 291.395C1246.12 287.665 1249.36 283.925 1252.61 280.185C1252.97 279.775 1253.35 279.395 1253.7 278.985C1255.6 276.755 1256.6 274.365 1256.59 271.235C1256.47 241.985 1256.52 212.735 1256.52 183.485C1256.52 182.565 1256.52 181.655 1256.52 180.425H1282.35V168.765C1288.23 168.655 1293.85 168.725 1299.46 168.715C1305.01 168.705 1310.55 168.715 1316.3 168.715V54.9948C1321.39 54.6848 1326.3 55.0548 1331.45 54.7648V16.9748C1333.44 16.4348 1366.64 16.3648 1369.18 16.8648V72.4648H1382.31V281.785C1384.6 280.985 1386.23 279.695 1387.92 278.555C1388.27 278.315 1388.39 277.625 1388.48 277.115C1388.96 274.375 1389.39 271.625 1389.85 268.875C1389.91 268.535 1390.04 268.205 1390.3 267.875C1391.81 273.455 1393.11 279.025 1392.6 285.075C1394.12 284.925 1395.33 284.855 1396.52 284.665C1397.63 284.495 1398.42 284.805 1399.1 285.725C1400.25 287.275 1401.51 288.735 1402.68 290.175C1402.89 290.135 1402.97 290.135 1403.03 290.105C1403.09 290.075 1403.17 290.025 1403.18 289.965C1403.22 289.735 1403.27 289.505 1403.27 289.275C1403.31 272.795 1403.35 256.315 1403.39 239.835C1403.39 239.765 1403.45 239.705 1403.61 239.405C1408 238.655 1412.55 237.885 1417.29 237.075C1417.34 236.095 1417.42 235.185 1417.42 234.285C1417.42 224.455 1417.41 214.625 1417.43 204.805C1417.47 188.865 1417.53 172.925 1417.62 156.995C1417.62 156.015 1417.75 154.955 1418.14 154.075C1421.92 145.495 1426.05 137.095 1431.63 129.515C1433.31 127.225 1435.29 125.115 1437.35 123.155C1440.19 120.445 1443.59 120.025 1446.96 121.985C1449.41 123.415 1451.77 125.105 1453.86 127.015C1458.51 131.265 1462.19 136.365 1465.66 141.595C1467.37 144.175 1468.96 146.825 1470.55 149.485C1471.89 151.715 1472.47 154.105 1472.44 156.775C1472.34 167.535 1472.4 178.285 1472.4 189.045C1472.4 189.575 1472.47 190.115 1472.52 190.775C1474.8 191.905 1477.04 193.125 1479.38 194.135C1481.08 194.865 1481.73 195.845 1481.72 197.795C1481.61 209.635 1481.67 221.475 1481.67 233.315C1481.67 234.235 1481.67 235.145 1481.67 236.295H1537.5C1537.52 235.375 1537.55 234.395 1537.55 233.425C1537.53 201.315 1537.54 169.195 1537.45 137.085C1537.45 134.965 1537.94 133.415 1539.6 132.075C1541.04 130.915 1542.32 129.545 1543.61 128.215C1544.31 127.495 1545.08 127.215 1546.08 127.235C1548.69 127.285 1551.3 127.255 1554.06 127.255C1554.16 125.655 1554.24 124.295 1554.33 122.805H1586.6V129.835C1587.45 129.915 1588.05 130.015 1588.64 130.015C1592.05 130.035 1595.45 130.065 1598.86 130.005C1600.1 129.985 1601.07 130.245 1601.91 131.235C1603.36 132.935 1605.47 134.315 1606.28 136.265C1607.05 138.125 1606.53 140.525 1606.53 142.685C1606.53 168.915 1606.53 195.155 1606.53 221.385V224.615H1615.29V241.305C1623.54 243.045 1631.53 244.735 1639.75 246.475V271.465H1661.03V214.195C1662.77 214.105 1664.28 214.025 1666.07 213.925V211.335C1666.07 205.845 1666.2 200.345 1666.01 194.855C1665.92 192.295 1667.56 190.945 1668.93 189.355C1669.2 189.045 1669.93 189.045 1670.45 189.045C1676.18 189.025 1681.9 189.045 1687.63 189.015C1688.56 189.015 1689.18 189.305 1689.83 189.995C1691.44 191.715 1692.29 193.535 1692.11 196.015C1691.87 199.155 1692.05 202.335 1692.05 205.695H1700.89C1700.97 204.165 1701.06 202.585 1701.16 200.765H1727.81C1727.86 199.785 1727.93 199.035 1727.94 198.295C1727.95 194.035 1727.91 189.785 1727.98 185.525C1727.99 184.645 1728.21 183.655 1728.67 182.925C1732.57 176.675 1736.83 170.675 1742.22 165.615C1744.06 163.885 1746.17 162.385 1748.3 161.015C1750.7 159.465 1753.4 159.385 1756.14 160.085C1759.26 160.885 1762.03 162.415 1764.64 164.245C1770.97 168.675 1776.27 174.185 1781.15 180.125C1782.32 181.555 1782.82 183.135 1782.8 185.045C1782.71 192.935 1782.76 200.825 1782.76 208.945C1785.88 210.065 1788.99 211.175 1792.36 212.375V229.355H1857.22C1857.33 230.035 1857.46 230.535 1857.49 231.045C1857.53 231.665 1857.5 232.285 1857.5 232.905C1857.5 297.905 1857.5 362.905 1857.5 427.905C1857.5 428.905 1857.46 429.895 1857.44 430.895H0C0 381.215 0 331.535 0 281.855V281.845Z" fill="#F2F3F5"/>
</svg>
