<svg width="480" height="366" viewBox="0 0 480 366" fill="none" xmlns="http://www.w3.org/2000/svg">
<g clip-path="url(#clip0_94_1009)">
<path d="M239.86 365.18C187.19 364.02 142.24 345.1 106.05 306.45C101.65 301.75 97.8199 300.65 91.7099 302.67C76.3699 307.73 60.7699 311.99 45.3299 316.75C41.4499 317.95 39.6899 317.03 38.5099 313.04C25.9599 270.54 13.3299 228.06 0.51994 185.64C-0.80006 181.27 0.379941 179.79 4.41994 178.62C20.7399 173.91 36.9699 168.86 53.2799 164.11C56.9199 163.05 58.5699 161.32 59.1599 157.32C71.0199 76.72 131.17 14.8599 211.46 2.39995C269.29 -6.57005 320.16 9.77995 363.73 48.9099C368.33 53.0399 372.69 57.3899 376.61 62.1199C379.38 65.4699 382.26 65.9399 386.25 64.7099C402.17 59.7999 418.21 55.2799 434.09 50.2799C438.49 48.8999 440.18 49.7899 441.49 54.2499C453.97 96.5899 466.59 138.9 479.4 181.14C480.75 185.59 479.41 187 475.44 188.15C459.12 192.88 442.9 197.94 426.57 202.63C422.32 203.85 420.56 205.95 419.84 210.48C414.32 245.58 399.96 276.66 376.31 303.28C344.19 339.43 303.87 359.45 255.85 364.32C250.52 364.86 245.22 364.98 239.84 365.18H239.86ZM55.7799 293.73C56.7199 293.46 58.1599 293.07 59.5999 292.64C122.97 273.72 186.35 254.81 249.72 235.88C316.92 215.8 384.12 195.71 451.32 175.62C457.07 173.9 457.37 173.5 455.58 167.5C446.68 137.65 437.66 107.83 428.89 77.9399C427.54 73.3399 425.65 72.3799 421.06 73.7899C390.8 83.0599 360.45 92.0699 330.13 101.14C275.7 117.42 221.27 133.67 166.84 149.94C120.87 163.68 74.8999 177.43 28.9399 191.2C22.4299 193.15 22.4799 193.24 24.5399 199.97C27.1199 208.41 29.6199 216.88 32.1499 225.34C38.5499 246.73 44.9399 268.12 51.3699 289.49C51.9699 291.48 52.1499 294 55.7899 293.74L55.7799 293.73ZM239.49 22.8599C233.46 23.0399 227.49 23.0399 221.51 23.8399C169.88 30.7099 130.24 56.1199 102.86 100.45C93.4099 115.75 87.0199 132.34 83.3599 149.94C82.3399 154.86 82.9199 155.29 87.7299 153.87C93.7999 152.07 99.8699 150.28 105.93 148.47C144.54 136.91 183.15 125.35 221.76 113.8C264.68 100.96 307.61 88.1599 350.52 75.2899C356.46 73.5099 356.56 73.0699 352.17 68.8799C320.63 38.7899 283.17 23.1899 239.5 22.8699L239.49 22.8599ZM240.19 342.15C248.76 342.34 257.24 341.84 265.62 340.28C316.17 330.88 354.42 304.07 379.74 259.19C386.98 246.35 392.02 232.58 395.38 218.22C396.69 212.64 395.87 211.92 390.27 213.53C385.79 214.82 381.34 216.22 376.87 217.55C326.11 232.74 275.36 247.92 224.6 263.11C192.84 272.62 161.08 282.15 129.31 291.62C125.97 292.62 124.45 293.4 127.84 296.66C159.28 326.79 196.72 341.92 240.19 342.14V342.15Z" fill="#018FFB"/>
<path d="M357.7 192.34C336.55 192.18 323.3 184.32 315.84 167.66C308.61 151.53 309.89 136.31 321.44 122.35C335.24 105.66 366.46 100.74 383.45 113.08C397.86 123.55 403.34 138.31 400.97 155.57C398.67 172.34 388.01 182.81 372.72 188.91C366.95 191.21 360.95 192.58 357.71 192.33L357.7 192.34ZM356.26 131.92C347.08 131.95 340.35 138.48 340.28 147.41C340.2 157.86 348.39 167 357.68 166.82C365.87 166.67 372.63 159.42 372.76 150.67C372.91 140.36 365.45 131.88 356.25 131.92H356.26Z" fill="#018FFB"/>
<path d="M180.37 159.78C204.83 159.77 222.14 177.68 222.12 202.96C222.1 226.87 200.87 246.05 174.48 246C150.94 245.96 132.06 226.4 132.02 202.02C131.99 178.43 153.31 159.79 180.37 159.78ZM193.08 203.69C193.01 192.96 186.28 185.14 177.08 185.09C167.99 185.04 160.99 192.07 161.06 201.17C161.14 211.76 168.72 220.09 178.19 219.99C187.22 219.89 193.14 213.41 193.08 203.69V203.69Z" fill="#018FFB"/>
<path d="M274.58 131.93C279.16 131.65 283.7 132.47 288.21 133.83C291.89 134.94 293.07 136.76 291.28 140.43C289.16 144.76 287.13 149.16 285.48 153.69C284.16 157.31 282.41 157.93 278.71 156.83C267.48 153.52 257.31 159.75 255.7 171.05C254.66 178.35 257.04 185.04 262.74 189.89C268.25 194.57 274.65 194.33 281.11 191.75C283.45 190.81 285.35 189.68 284.3 186.6C283.23 183.46 281.01 184.55 278.96 185.06C277.51 185.42 276.06 185.82 274.64 186.29C272.23 187.08 270.79 186.16 270.09 183.84C268.68 179.22 267.29 174.6 265.88 169.99C265.2 167.77 266.09 166.54 268.24 165.91C277.67 163.15 287.09 160.4 296.49 157.54C299.33 156.68 300.89 157.57 301.71 160.37C305.15 172.02 308.66 183.65 312.14 195.3C312.69 197.14 312.8 198.91 311.22 200.38C297.63 213.15 270.28 224.78 249.11 212.69C233.95 204.03 226.97 189.95 227.45 173.12C227.98 154.42 238.66 142.01 255.9 135.21C261.84 132.87 268.02 131.64 274.59 131.94L274.58 131.93Z" fill="#018FFB"/>
<path d="M142.51 251.97C142.81 254.96 141.14 255.55 139.54 256.04C124.71 260.54 109.87 264.98 95.04 269.47C92.36 270.28 90.95 269.2 90.21 266.69C83.35 243.53 76.48 220.36 69.56 197.22C68.64 194.14 69.63 192.49 72.63 191.64C78.24 190.05 83.86 188.48 89.4 186.65C93.06 185.44 94.95 186.44 96.03 190.16C100.31 204.88 104.77 219.54 109.13 234.24C110.9 240.2 111.11 240.31 117.14 238.47C122.4 236.87 127.69 235.36 132.97 233.82C134.63 233.34 136.44 232.85 137.16 235.05C139.1 240.9 140.89 246.79 142.52 251.97H142.51Z" fill="#018FFB"/>
<path d="M225.1 87.4499C225.14 90.4099 224.27 93.0599 222.69 95.4899C218.34 102.16 207.22 106.33 199.76 104.13C194.6 102.61 190.94 99.4499 189.29 94.3199C187.1 87.5099 185.17 80.6299 183.03 73.8099C182.2 71.1799 182.95 69.6699 185.64 69.0199C187.25 68.6299 188.86 68.1799 190.42 67.6099C193.45 66.4999 195.1 67.5899 195.96 70.6099C197.55 76.2099 199.29 81.7599 201 87.3299C202 90.5799 203.94 92.7699 207.6 91.6699C211.45 90.5099 211.96 87.5999 210.89 84.0799C209.24 78.6699 207.83 73.1899 206.04 67.8299C204.93 64.5199 205.85 62.7799 209.16 62.0099C210.94 61.5899 212.66 60.9399 214.42 60.4399C216.05 59.9799 217.56 60.2699 218.08 62.0399C220.56 70.4699 223.86 78.6799 225.1 87.4499Z" fill="#018FFB"/>
<path d="M168.84 73.8599C169.34 73.8599 169.86 73.7599 170.33 73.8699C172.86 74.4699 176.62 73.1099 177.24 77.0199C177.8 80.5799 172.87 85.0699 169.18 84.9899C168.35 84.9699 167.5 84.9099 166.69 85.0299C165.39 85.2199 163.75 85.3199 163.93 87.1699C164.07 88.6099 165.53 88.6699 166.68 88.7599C169 88.9399 171.36 88.8599 173.65 89.2399C178.56 90.0599 182.53 92.2199 183.7 97.5899C184.92 103.17 183.39 107.95 178.82 111.35C173.21 115.52 166.78 116.97 159.88 115.61C157.95 115.23 154.65 115.08 155.8 112C156.9 109.06 157.05 104.7 161.76 104.48C163.57 104.39 165.4 104.81 167.22 104.74C168.54 104.69 170.12 104.33 170.26 102.71C170.41 100.93 168.72 100.68 167.48 100.49C165.51 100.19 163.5 100.16 161.51 100.04C156.43 99.7599 152.34 97.7499 150.63 92.7299C148.87 87.5599 149.97 82.8699 154.22 79.1299C158.41 75.4399 163.22 73.5099 168.86 73.8499L168.84 73.8599Z" fill="#018FFB"/>
<path d="M125.68 98.58C127.71 101.17 131.68 100.34 133.33 101.96C134.97 103.57 132.82 107.42 133.39 110.44C133.68 111.98 131.5 111.87 130.22 111.96C128.85 112.06 127.6 112.42 126.5 113.26C124.71 114.62 123.81 113.75 123.25 111.98C123.1 111.5 123.09 110.81 122.76 110.59C115.72 105.87 123.99 103.17 124.26 99.43C124.28 99.17 125.02 98.96 125.67 98.58H125.68Z" fill="#018FFB"/>
<path d="M298.27 60.67C295.73 64.01 291.6 64.38 289.07 64.46C286.67 64.54 285.99 59.32 283.19 57.51C285.41 54.97 287.63 52.42 289.85 49.88C291.89 52.04 295.35 51.55 297.18 53.16C299 54.76 295.19 58.11 298.27 60.66V60.67Z" fill="#018FFB"/>
<path d="M239.9 287.42C239.94 277.19 248.42 268.36 259.49 267.03C271.22 265.61 280.08 271.38 282.47 282.04C282.76 283.32 283.01 284.71 282.81 285.98C282.35 288.88 281.34 291.2 286.3 291.09C288.9 291.03 288.96 295.24 289.48 297.74C289.93 299.91 287.98 300.44 286.38 300.92C279.37 303.01 272.38 305.16 265.33 307.09C251.28 310.94 239.83 302.05 239.89 287.43L239.9 287.42ZM254.02 287.16C254.07 292.38 257.4 295.97 262.14 295.9C266.64 295.84 269.83 292.41 269.68 287.79C269.53 283.18 265.87 279.26 261.66 279.18C257.32 279.1 253.98 282.6 254.02 287.16V287.16Z" fill="#018FFB"/>
<path d="M325.19 276.71C325.2 287.46 319.76 293.03 308.7 295.36C300.31 297.13 292.99 293.68 290.05 285.84C287.49 279 285.69 271.88 283.52 264.88C282.69 262.19 283.86 260.78 286.37 260.1C287.98 259.67 289.6 259.26 291.16 258.69C294.01 257.65 295.56 258.73 296.37 261.49C297.87 266.6 299.46 271.68 301.01 276.77C302.12 280.42 303.43 284.34 308.34 282.82C313.25 281.3 312.06 277.27 311.02 273.65C309.6 268.69 308.15 263.74 306.67 258.8C304.76 252.43 310.41 253.46 313.39 252.02C316.72 250.41 318.58 251.7 319.44 255.31C321.28 263.05 324.51 270.45 325.19 276.69V276.71Z" fill="#018FFB"/>
<path d="M348.75 279.14C349.1 281.48 348.26 282.62 346.66 283.16C344.61 283.85 342.5 284.34 340.45 285.04C337.79 285.94 336.4 284.92 335.65 282.35C332.77 272.45 329.87 262.55 326.85 252.68C325.92 249.65 326.68 247.91 329.8 247.15C331.74 246.68 333.62 245.98 335.54 245.44C337.23 244.96 338.6 245.49 339.12 247.2C342.41 258.02 345.65 268.85 348.74 279.14H348.75Z" fill="#018FFB"/>
<path fill-rule="evenodd" clip-rule="evenodd" d="M231.569 79.0168C231.325 81.8413 231.081 84.6656 230.85 87.4899H230.83C230.855 87.4961 230.884 87.4985 230.911 87.4994C230.928 87.4999 230.945 87.4999 230.96 87.4999C230.915 87.8881 230.87 88.2757 230.825 88.6632C230.658 90.0924 230.492 91.5181 230.35 92.9499C230.25 93.9799 230.37 94.9399 231.53 95.3999C234.02 96.3999 243.07 91.8999 243.92 89.2299C245.1 85.5199 253.62 81.3099 256.03 83.8799C259.458 87.5376 262.693 86.5685 266.045 85.5641C266.79 85.341 267.54 85.1162 268.3 84.9399C272.06 84.0699 272.99 82.7099 270.2 79.2999C263.47 71.0699 256.83 62.7499 250.61 54.1299C247.657 50.0237 244.533 50.8974 240.843 51.9291C240.759 51.9526 240.675 51.9763 240.59 51.9999C236.72 53.0799 233.41 54.2099 233.11 59.1899C232.711 65.8026 232.14 72.4104 231.569 79.0168ZM247.732 68.6119C246.972 67.3402 246.159 65.979 244.21 65.08V65.09C244.087 65.8893 243.961 66.6355 243.842 67.3464C243.602 68.7701 243.387 70.0528 243.26 71.34C243.13 72.64 243.13 74.29 244.73 74.56C246.32 74.8299 248.08 74.28 249.28 73.16C250.413 72.1012 249.632 71.1771 248.923 70.338C248.769 70.1548 248.617 69.9756 248.49 69.8C248.219 69.4258 247.978 69.0235 247.732 68.6119Z" fill="#018FFB"/>
<path fill-rule="evenodd" clip-rule="evenodd" d="M232.267 316.715C232.523 316.803 232.779 316.891 233.03 316.99V317.01C233.87 316.774 234.699 316.534 235.52 316.297C237.135 315.83 238.723 315.371 240.32 314.96C243.98 314.02 244.46 312.32 242.09 309.34C235.47 301.01 228.95 292.59 222.45 284.16C220.6 281.77 218.74 279.77 215.38 281.33C214.336 281.816 213.157 282.101 211.979 282.386C208.743 283.17 205.519 283.951 205.16 288.87C204.6 296.55 203.911 304.215 203.222 311.882C202.914 315.307 202.606 318.733 202.31 322.16L202.299 322.279C202.181 323.582 202.06 324.917 203.7 325.47C205.55 326.09 214.35 322.37 215.17 320.64C218.53 313.51 223.73 312.01 230.76 316.09C231.229 316.358 231.747 316.536 232.267 316.715ZM218.148 296.944C217.611 296.454 217.069 295.961 216.58 295.44C216.449 296.283 216.158 297.142 215.868 297.999C215.095 300.282 214.329 302.544 216.62 304.42C217.71 305.31 220.99 304.35 221.29 302.93C221.841 300.313 220.017 298.649 218.148 296.944Z" fill="#018FFB"/>
</g>
<defs>
<clipPath id="clip0_94_1009">
<rect width="479.92" height="365.18" fill="white"/>
</clipPath>
</defs>
</svg>
